<?xml version="1.0" encoding="UTF-8" standalone="no"?>
<!DOCTYPE svg PUBLIC "-//W3C//DTD SVG 1.1//EN"
 "http://www.w3.org/Graphics/SVG/1.1/DTD/svg11.dtd">
<!-- Generated by graphviz version 2.38.0 (20140413.2041)
 -->
<!-- Title: G Pages: 1 -->
<svg width="693pt" height="299pt"
 viewBox="0.00 0.00 693.00 299.00" xmlns="http://www.w3.org/2000/svg" xmlns:xlink="http://www.w3.org/1999/xlink">
<g id="graph0" class="graph" transform="scale(1 1) rotate(0) translate(4 295)">
<title>G</title>
<polygon fill="white" stroke="none" points="-4,4 -4,-295 689,-295 689,4 -4,4"/>
<g id="clust1" class="cluster"><title>cluster_cmail</title>
<polygon fill="none" stroke="blue" points="170,-8 170,-283 549,-283 549,-8 170,-8"/>
<text text-anchor="middle" x="359.5" y="-15.4" font-family="Verdana" font-size="12.00">cmail Server</text>
</g>
<g id="clust3" class="cluster"><title>cluster_client</title>
<polygon fill="none" stroke="black" points="8,-8 8,-82 162,-82 162,-8 8,-8"/>
<text text-anchor="middle" x="85" y="-15.4" font-family="Verdana" font-size="12.00">Client</text>
</g>
<!-- Remote -->
<g id="node1" class="node"><title>Remote</title>
<polygon fill="none" stroke="black" points="557,-233 557,-269 685,-269 685,-233 557,-233"/>
<text text-anchor="middle" x="621" y="-247.9" font-family="Verdana" font-size="12.00">Remote mail server</text>
</g>
<!-- MSA -->
<g id="node4" class="node"><title>MSA</title>
<polygon fill="lightgrey" stroke="black" points="178,-132.5 178,-168.5 276,-168.5 276,-132.5 178,-132.5"/>
<text text-anchor="middle" x="227" y="-153.9" font-family="Verdana" font-size="12.00">cmail&#45;smtpd</text>
<text text-anchor="middle" x="227" y="-140.9" font-family="Verdana" font-size="12.00">(SMTP server)</text>
</g>
<!-- Remote&#45;&gt;MSA -->
<g id="edge5" class="edge"><title>Remote&#45;&gt;MSA</title>
<path fill="none" stroke="black" d="M572.522,-232.955C565.991,-230.849 559.354,-228.805 553,-227 503.362,-212.894 365.625,-182.007 285.966,-164.423"/>
<polygon fill="black" stroke="black" points="286.594,-160.977 276.075,-162.242 285.087,-167.813 286.594,-160.977"/>
<text text-anchor="middle" x="497" y="-201" font-family="Verdana" font-size="10.00">Incoming</text>
<text text-anchor="middle" x="497" y="-190" font-family="Verdana" font-size="10.00">mail</text>
</g>
<!-- MTA -->
<g id="node2" class="node"><title>MTA</title>
<polygon fill="lightgrey" stroke="black" points="434.5,-132.5 434.5,-168.5 541.5,-168.5 541.5,-132.5 434.5,-132.5"/>
<text text-anchor="middle" x="488" y="-153.9" font-family="Verdana" font-size="12.00">cmail&#45;dispatchd</text>
<text text-anchor="middle" x="488" y="-140.9" font-family="Verdana" font-size="12.00">(SMTP client)</text>
</g>
<!-- MTA&#45;&gt;Remote -->
<g id="edge6" class="edge"><title>MTA&#45;&gt;Remote</title>
<path fill="none" stroke="black" d="M511.167,-168.657C532.87,-184.731 565.481,-208.883 589.534,-226.696"/>
<polygon fill="black" stroke="black" points="587.533,-229.57 597.652,-232.709 591.699,-223.944 587.533,-229.57"/>
<text text-anchor="middle" x="586" y="-201" font-family="Verdana" font-size="10.00">Outbound</text>
<text text-anchor="middle" x="586" y="-190" font-family="Verdana" font-size="10.00">mail</text>
</g>
<!-- Master -->
<g id="node3" class="node"><title>Master</title>
<polygon fill="lightgrey" stroke="black" points="321,-132.5 321,-168.5 391,-168.5 391,-132.5 321,-132.5"/>
<text text-anchor="middle" x="356" y="-153.9" font-family="Verdana" font-size="12.00">Master</text>
<text text-anchor="middle" x="356" y="-140.9" font-family="Verdana" font-size="12.00">database</text>
</g>
<!-- Master&#45;&gt;MTA -->
<g id="edge2" class="edge"><title>Master&#45;&gt;MTA</title>
<path fill="none" stroke="black" d="M391.027,-150.5C401.306,-150.5 412.881,-150.5 424.361,-150.5"/>
<polygon fill="black" stroke="black" points="424.389,-154 434.389,-150.5 424.389,-147 424.389,-154"/>
<text text-anchor="middle" x="412.75" y="-139.5" font-family="Verdana" font-size="10.00">Fetch</text>
</g>
<!-- Access -->
<g id="node5" class="node"><title>Access</title>
<polygon fill="lightgrey" stroke="black" points="209.5,-227.5 209.5,-274.5 318.5,-274.5 318.5,-227.5 209.5,-227.5"/>
<text text-anchor="middle" x="264" y="-260.9" font-family="Verdana" font-size="12.00">cmail&#45;popd</text>
<text text-anchor="middle" x="264" y="-247.9" font-family="Verdana" font-size="12.00">cmail&#45;imapd</text>
<text text-anchor="middle" x="264" y="-234.9" font-family="Verdana" font-size="12.00">cmail&#45;webmailer</text>
</g>
<!-- Master&#45;&gt;Access -->
<g id="edge3" class="edge"><title>Master&#45;&gt;Access</title>
<path fill="none" stroke="black" d="M339.975,-168.657C326.76,-182.806 307.7,-203.213 291.977,-220.047"/>
<polygon fill="black" stroke="black" points="289.288,-217.798 285.02,-227.495 294.404,-222.576 289.288,-217.798"/>
<text text-anchor="middle" x="345.5" y="-195.5" font-family="Verdana" font-size="10.00">Fetch mail</text>
</g>
<!-- MSA&#45;&gt;Master -->
<g id="edge1" class="edge"><title>MSA&#45;&gt;Master</title>
<path fill="none" stroke="black" d="M276.137,-150.5C287.361,-150.5 299.243,-150.5 310.314,-150.5"/>
<polygon fill="black" stroke="black" points="310.633,-154 320.633,-150.5 310.633,-147 310.633,-154"/>
<text text-anchor="middle" x="298.5" y="-139.5" font-family="Verdana" font-size="10.00">Store</text>
</g>
<!-- MUA -->
<g id="node7" class="node"><title>MUA</title>
<polygon fill="none" stroke="black" points="16,-37.5 16,-73.5 70,-73.5 70,-37.5 16,-37.5"/>
<text text-anchor="middle" x="43" y="-52.4" font-family="Verdana" font-size="12.00">MUA</text>
</g>
<!-- Access&#45;&gt;MUA -->
<g id="edge8" class="edge"><title>Access&#45;&gt;MUA</title>
<path fill="none" stroke="black" d="M218.853,-227.48C192.03,-212.887 158.241,-192.293 132,-169 102.639,-142.938 75.6903,-106.314 59.3163,-82.0189"/>
<polygon fill="black" stroke="black" points="62.2215,-80.0669 53.7773,-73.668 56.3881,-83.9362 62.2215,-80.0669"/>
<text text-anchor="middle" x="150.5" y="-153.5" font-family="Verdana" font-size="10.00">Mailbox</text>
<text text-anchor="middle" x="150.5" y="-142.5" font-family="Verdana" font-size="10.00">access</text>
</g>
<!-- Admin -->
<g id="node6" class="node"><title>Admin</title>
<polygon fill="lightgrey" stroke="black" points="248.5,-37.5 248.5,-73.5 315.5,-73.5 315.5,-37.5 248.5,-37.5"/>
<text text-anchor="middle" x="282" y="-52.4" font-family="Verdana" font-size="12.00">cmail&#45;api</text>
</g>
<!-- Admin&#45;&gt;Master -->
<g id="edge4" class="edge"><title>Admin&#45;&gt;Master</title>
<path fill="none" stroke="black" d="M295.573,-73.5576C306.872,-87.7577 323.122,-108.181 335.926,-124.272"/>
<polygon fill="black" stroke="black" points="333.297,-126.59 342.263,-132.236 338.775,-122.231 333.297,-126.59"/>
<text text-anchor="middle" x="358" y="-106" font-family="Verdana" font-size="10.00">Configuration</text>
<text text-anchor="middle" x="358" y="-95" font-family="Verdana" font-size="10.00">data</text>
</g>
<!-- MUA&#45;&gt;MSA -->
<g id="edge7" class="edge"><title>MUA&#45;&gt;MSA</title>
<path fill="none" stroke="black" d="M65.8147,-73.6233C70.1033,-76.5631 74.6185,-79.4791 79,-82 109.679,-99.6513 145.792,-116.198 174.665,-128.491"/>
<polygon fill="black" stroke="black" points="173.587,-131.835 184.161,-132.492 176.305,-125.384 173.587,-131.835"/>
<text text-anchor="middle" x="164" y="-106" font-family="Verdana" font-size="10.00">Originated</text>
<text text-anchor="middle" x="164" y="-95" font-family="Verdana" font-size="10.00">mail</text>
</g>
<!-- Browser -->
<g id="node8" class="node"><title>Browser</title>
<polygon fill="none" stroke="black" points="88,-37.5 88,-73.5 154,-73.5 154,-37.5 88,-37.5"/>
<text text-anchor="middle" x="121" y="-52.4" font-family="Verdana" font-size="12.00">Browser</text>
</g>
<!-- Browser&#45;&gt;Admin -->
<g id="edge9" class="edge"><title>Browser&#45;&gt;Admin</title>
<path fill="none" stroke="black" d="M154.359,-55.5C178.671,-55.5 211.841,-55.5 238.273,-55.5"/>
<polygon fill="black" stroke="black" points="238.407,-59.0001 248.407,-55.5 238.407,-52.0001 238.407,-59.0001"/>
<text text-anchor="middle" x="201.25" y="-44.5" font-family="Verdana" font-size="10.00">API Access</text>
<text text-anchor="middle" x="201.25" y="-33.5" font-family="Verdana" font-size="10.00">(HTTP)</text>
</g>
</g>
</svg>
