<?xml version="1.0" encoding="UTF-8" standalone="no"?>
<!DOCTYPE svg PUBLIC "-//W3C//DTD SVG 1.1//EN"
 "http://www.w3.org/Graphics/SVG/1.1/DTD/svg11.dtd">
<!-- Generated by graphviz version 2.26.3 (20100126.1600)
 -->
<!-- Title: G Pages: 1 -->
<svg width="677pt" height="315pt"
 viewBox="0.00 0.00 677.00 315.00" xmlns="http://www.w3.org/2000/svg" xmlns:xlink="http://www.w3.org/1999/xlink">
<g id="graph1" class="graph" transform="scale(1 1) rotate(0) translate(4 311)">
<title>G</title>
<polygon fill="white" stroke="white" points="-4,5 -4,-311 674,-311 674,5 -4,5"/>
<g id="graph2" class="cluster"><title>cluster_cmail</title>
<polygon fill="none" stroke="blue" points="170,-8 170,-299 533,-299 533,-8 170,-8"/>
<text text-anchor="middle" x="351.5" y="-16.2" font-family="Verdana" font-size="12.00">cmail Server</text>
</g>
<g id="graph4" class="cluster"><title>cluster_client</title>
<polygon fill="none" stroke="black" points="8,-8 8,-85 162,-85 162,-8 8,-8"/>
<text text-anchor="middle" x="85" y="-16.2" font-family="Verdana" font-size="12.00">Client</text>
</g>
<!-- Remote -->
<g id="node1" class="node"><title>Remote</title>
<polygon fill="none" stroke="black" points="541,-246 541,-282 669,-282 669,-246 541,-246"/>
<text text-anchor="middle" x="605" y="-260.7" font-family="Verdana" font-size="12.00">Remote mail server</text>
</g>
<!-- MSA -->
<g id="node5" class="node"><title>MSA</title>
<polygon fill="lightgrey" stroke="black" points="178,-138 178,-176 276,-176 276,-138 178,-138"/>
<text text-anchor="middle" x="227" y="-161.2" font-family="Verdana" font-size="12.00">cmail&#45;msa</text>
<text text-anchor="middle" x="227" y="-146.2" font-family="Verdana" font-size="12.00">(SMTP server)</text>
</g>
<!-- Remote&#45;&gt;MSA -->
<g id="edge13" class="edge"><title>Remote&#45;&gt;MSA</title>
<path fill="none" stroke="black" d="M561.765,-245.895C553.605,-242.746 545.091,-239.639 537,-237 490.663,-221.888 362.327,-189.936 286.088,-171.31"/>
<polygon fill="black" stroke="black" points="286.69,-167.854 276.146,-168.884 285.031,-174.655 286.69,-167.854"/>
<text text-anchor="middle" x="493" y="-210" font-family="Verdana" font-size="10.00">Incoming</text>
<text text-anchor="middle" x="493" y="-198" font-family="Verdana" font-size="10.00">mail</text>
</g>
<!-- MTA -->
<g id="node3" class="node"><title>MTA</title>
<polygon fill="lightgrey" stroke="black" points="434.5,-138 434.5,-176 525.5,-176 525.5,-138 434.5,-138"/>
<text text-anchor="middle" x="480" y="-161.2" font-family="Verdana" font-size="12.00">cmail&#45;mta</text>
<text text-anchor="middle" x="480" y="-146.2" font-family="Verdana" font-size="12.00">(SMTP client)</text>
</g>
<!-- MTA&#45;&gt;Remote -->
<g id="edge15" class="edge"><title>MTA&#45;&gt;Remote</title>
<path fill="none" stroke="black" d="M502.347,-176.129C522.862,-193.689 553.384,-219.816 575.816,-239.018"/>
<polygon fill="black" stroke="black" points="573.807,-241.906 583.68,-245.75 578.36,-236.589 573.807,-241.906"/>
<text text-anchor="middle" x="573" y="-210" font-family="Verdana" font-size="10.00">Outbound</text>
<text text-anchor="middle" x="573" y="-198" font-family="Verdana" font-size="10.00">mail</text>
</g>
<!-- Master -->
<g id="node4" class="node"><title>Master</title>
<polygon fill="lightgrey" stroke="black" points="321,-138 321,-176 391,-176 391,-138 321,-138"/>
<text text-anchor="middle" x="356" y="-161.2" font-family="Verdana" font-size="12.00">Master</text>
<text text-anchor="middle" x="356" y="-146.2" font-family="Verdana" font-size="12.00">database</text>
</g>
<!-- Master&#45;&gt;MTA -->
<g id="edge7" class="edge"><title>Master&#45;&gt;MTA</title>
<path fill="none" stroke="black" d="M391.202,-157C401.508,-157 413.037,-157 424.288,-157"/>
<polygon fill="black" stroke="black" points="424.498,-160.5 434.498,-157 424.498,-153.5 424.498,-160.5"/>
<text text-anchor="middle" x="413" y="-148" font-family="Verdana" font-size="10.00">Fetch</text>
</g>
<!-- Access -->
<g id="node6" class="node"><title>Access</title>
<polygon fill="lightgrey" stroke="black" points="206.5,-237.5 206.5,-290.5 315.5,-290.5 315.5,-237.5 206.5,-237.5"/>
<text text-anchor="middle" x="261" y="-275.7" font-family="Verdana" font-size="12.00">cmail&#45;popd</text>
<text text-anchor="middle" x="261" y="-260.7" font-family="Verdana" font-size="12.00">cmail&#45;imapd</text>
<text text-anchor="middle" x="261" y="-245.7" font-family="Verdana" font-size="12.00">cmail&#45;webmailer</text>
</g>
<!-- Master&#45;&gt;Access -->
<g id="edge9" class="edge"><title>Master&#45;&gt;Access</title>
<path fill="none" stroke="black" d="M320.87,-167.428C306.349,-173.367 290.49,-182.236 280,-195 272.51,-204.113 267.963,-215.957 265.205,-227.252"/>
<polygon fill="black" stroke="black" points="261.709,-226.88 263.143,-237.377 268.568,-228.277 261.709,-226.88"/>
<text text-anchor="middle" x="304.5" y="-204" font-family="Verdana" font-size="10.00">Fetch mail</text>
</g>
<!-- MSA&#45;&gt;Master -->
<g id="edge5" class="edge"><title>MSA&#45;&gt;Master</title>
<path fill="none" stroke="black" d="M276.137,-157C287.361,-157 299.243,-157 310.314,-157"/>
<polygon fill="black" stroke="black" points="310.633,-160.5 320.633,-157 310.633,-153.5 310.633,-160.5"/>
<text text-anchor="middle" x="298" y="-148" font-family="Verdana" font-size="10.00">Store</text>
</g>
<!-- MUA -->
<g id="node10" class="node"><title>MUA</title>
<polygon fill="none" stroke="black" points="16,-40 16,-76 70,-76 70,-40 16,-40"/>
<text text-anchor="middle" x="43" y="-54.7" font-family="Verdana" font-size="12.00">MUA</text>
</g>
<!-- Access&#45;&gt;MUA -->
<g id="edge19" class="edge"><title>Access&#45;&gt;MUA</title>
<path fill="none" stroke="black" d="M213.749,-237.452C188.032,-221.745 156.55,-200.38 132,-177 102.549,-148.953 75.6214,-110.324 59.2765,-84.7809"/>
<polygon fill="black" stroke="black" points="62.0402,-82.6014 53.7485,-76.0061 56.1175,-86.3327 62.0402,-82.6014"/>
<text text-anchor="middle" x="150.5" y="-160" font-family="Verdana" font-size="10.00">Mailbox</text>
<text text-anchor="middle" x="150.5" y="-148" font-family="Verdana" font-size="10.00">access</text>
</g>
<!-- Admin -->
<g id="node7" class="node"><title>Admin</title>
<polygon fill="lightgrey" stroke="black" points="322.5,-40 322.5,-76 389.5,-76 389.5,-40 322.5,-40"/>
<text text-anchor="middle" x="356" y="-54.7" font-family="Verdana" font-size="12.00">cmail&#45;api</text>
</g>
<!-- Admin&#45;&gt;Master -->
<g id="edge11" class="edge"><title>Admin&#45;&gt;Master</title>
<path fill="none" stroke="black" d="M356,-76.1581C356,-90.5364 356,-110.908 356,-127.604"/>
<polygon fill="black" stroke="black" points="352.5,-127.945 356,-137.945 359.5,-127.945 352.5,-127.945"/>
<text text-anchor="middle" x="388" y="-110" font-family="Verdana" font-size="10.00">Configuration</text>
<text text-anchor="middle" x="388" y="-98" font-family="Verdana" font-size="10.00">data</text>
</g>
<!-- MUA&#45;&gt;MSA -->
<g id="edge17" class="edge"><title>MUA&#45;&gt;MSA</title>
<path fill="none" stroke="black" d="M65.7828,-76.1013C70.0747,-79.217 74.5992,-82.3131 79,-85 96.4618,-95.6613 140.699,-116.925 176.292,-133.593"/>
<polygon fill="black" stroke="black" points="175.06,-136.88 185.602,-137.941 178.022,-130.538 175.06,-136.88"/>
<text text-anchor="middle" x="170" y="-110" font-family="Verdana" font-size="10.00">Originated</text>
<text text-anchor="middle" x="170" y="-98" font-family="Verdana" font-size="10.00">mail</text>
</g>
<!-- Browser -->
<g id="node11" class="node"><title>Browser</title>
<polygon fill="none" stroke="black" points="88,-40 88,-76 154,-76 154,-40 88,-40"/>
<text text-anchor="middle" x="121" y="-54.7" font-family="Verdana" font-size="12.00">Browser</text>
</g>
<!-- Browser&#45;&gt;Admin -->
<g id="edge21" class="edge"><title>Browser&#45;&gt;Admin</title>
<path fill="none" stroke="black" d="M154.171,-58C195.488,-58 266.206,-58 312.012,-58"/>
<polygon fill="black" stroke="black" points="312.236,-61.5001 322.236,-58 312.236,-54.5001 312.236,-61.5001"/>
<text text-anchor="middle" x="238" y="-49" font-family="Verdana" font-size="10.00">API Access</text>
<text text-anchor="middle" x="238" y="-37" font-family="Verdana" font-size="10.00">(HTTP)</text>
</g>
</g>
</svg>
