<?xml version="1.0" encoding="UTF-8" standalone="no"?>
<!DOCTYPE svg PUBLIC "-//W3C//DTD SVG 1.1//EN"
 "http://www.w3.org/Graphics/SVG/1.1/DTD/svg11.dtd">
<!-- Generated by graphviz version 2.38.0 (20140413.2041)
 -->
<!-- Title: G Pages: 1 -->
<svg width="678pt" height="299pt"
 viewBox="0.00 0.00 678.00 299.00" xmlns="http://www.w3.org/2000/svg" xmlns:xlink="http://www.w3.org/1999/xlink">
<g id="graph0" class="graph" transform="scale(1 1) rotate(0) translate(4 295)">
<title>G</title>
<polygon fill="white" stroke="none" points="-4,4 -4,-295 674,-295 674,4 -4,4"/>
<g id="clust1" class="cluster"><title>cluster_cmail</title>
<polygon fill="none" stroke="blue" points="170,-8 170,-283 534,-283 534,-8 170,-8"/>
<text text-anchor="middle" x="352" y="-15.4" font-family="Verdana" font-size="12.00">cmail Server</text>
</g>
<g id="clust3" class="cluster"><title>cluster_client</title>
<polygon fill="none" stroke="black" points="8,-8 8,-82 162,-82 162,-8 8,-8"/>
<text text-anchor="middle" x="85" y="-15.4" font-family="Verdana" font-size="12.00">Client</text>
</g>
<!-- Remote -->
<g id="node1" class="node"><title>Remote</title>
<polygon fill="none" stroke="black" points="542,-233 542,-269 670,-269 670,-233 542,-233"/>
<text text-anchor="middle" x="606" y="-247.9" font-family="Verdana" font-size="12.00">Remote mail server</text>
</g>
<!-- MSA -->
<g id="node4" class="node"><title>MSA</title>
<polygon fill="lightgrey" stroke="black" points="178,-132.5 178,-168.5 276,-168.5 276,-132.5 178,-132.5"/>
<text text-anchor="middle" x="227" y="-153.9" font-family="Verdana" font-size="12.00">cmail&#45;smtpd</text>
<text text-anchor="middle" x="227" y="-140.9" font-family="Verdana" font-size="12.00">(SMTP server)</text>
</g>
<!-- Remote&#45;&gt;MSA -->
<g id="edge5" class="edge"><title>Remote&#45;&gt;MSA</title>
<path fill="none" stroke="black" d="M557.133,-232.905C550.724,-230.83 544.223,-228.808 538,-227 451.194,-201.785 349.113,-178.126 286.233,-164.229"/>
<polygon fill="black" stroke="black" points="286.623,-160.731 276.105,-162 285.119,-167.568 286.623,-160.731"/>
<text text-anchor="middle" x="492" y="-201" font-family="Verdana" font-size="10.00">Incoming</text>
<text text-anchor="middle" x="492" y="-190" font-family="Verdana" font-size="10.00">mail</text>
</g>
<!-- MTA -->
<g id="node2" class="node"><title>MTA</title>
<polygon fill="lightgrey" stroke="black" points="434.5,-132.5 434.5,-168.5 525.5,-168.5 525.5,-132.5 434.5,-132.5"/>
<text text-anchor="middle" x="480" y="-153.9" font-family="Verdana" font-size="12.00">cmail&#45;mta</text>
<text text-anchor="middle" x="480" y="-140.9" font-family="Verdana" font-size="12.00">(SMTP client)</text>
</g>
<!-- MTA&#45;&gt;Remote -->
<g id="edge6" class="edge"><title>MTA&#45;&gt;Remote</title>
<path fill="none" stroke="black" d="M501.948,-168.657C522.419,-184.661 553.133,-208.672 575.891,-226.462"/>
<polygon fill="black" stroke="black" points="573.847,-229.307 583.881,-232.709 578.158,-223.792 573.847,-229.307"/>
<text text-anchor="middle" x="574" y="-201" font-family="Verdana" font-size="10.00">Outbound</text>
<text text-anchor="middle" x="574" y="-190" font-family="Verdana" font-size="10.00">mail</text>
</g>
<!-- Master -->
<g id="node3" class="node"><title>Master</title>
<polygon fill="lightgrey" stroke="black" points="321,-132.5 321,-168.5 391,-168.5 391,-132.5 321,-132.5"/>
<text text-anchor="middle" x="356" y="-153.9" font-family="Verdana" font-size="12.00">Master</text>
<text text-anchor="middle" x="356" y="-140.9" font-family="Verdana" font-size="12.00">database</text>
</g>
<!-- Master&#45;&gt;MTA -->
<g id="edge2" class="edge"><title>Master&#45;&gt;MTA</title>
<path fill="none" stroke="black" d="M391.202,-150.5C401.508,-150.5 413.037,-150.5 424.288,-150.5"/>
<polygon fill="black" stroke="black" points="424.498,-154 434.498,-150.5 424.498,-147 424.498,-154"/>
<text text-anchor="middle" x="412.75" y="-139.5" font-family="Verdana" font-size="10.00">Fetch</text>
</g>
<!-- Access -->
<g id="node5" class="node"><title>Access</title>
<polygon fill="lightgrey" stroke="black" points="207.5,-227.5 207.5,-274.5 316.5,-274.5 316.5,-227.5 207.5,-227.5"/>
<text text-anchor="middle" x="262" y="-260.9" font-family="Verdana" font-size="12.00">cmail&#45;popd</text>
<text text-anchor="middle" x="262" y="-247.9" font-family="Verdana" font-size="12.00">cmail&#45;imapd</text>
<text text-anchor="middle" x="262" y="-234.9" font-family="Verdana" font-size="12.00">cmail&#45;webmailer</text>
</g>
<!-- Master&#45;&gt;Access -->
<g id="edge3" class="edge"><title>Master&#45;&gt;Access</title>
<path fill="none" stroke="black" d="M339.626,-168.657C326.124,-182.806 306.65,-203.213 290.585,-220.047"/>
<polygon fill="black" stroke="black" points="287.849,-217.844 283.477,-227.495 292.913,-222.677 287.849,-217.844"/>
<text text-anchor="middle" x="345.5" y="-195.5" font-family="Verdana" font-size="10.00">Fetch mail</text>
</g>
<!-- MSA&#45;&gt;Master -->
<g id="edge1" class="edge"><title>MSA&#45;&gt;Master</title>
<path fill="none" stroke="black" d="M276.137,-150.5C287.361,-150.5 299.243,-150.5 310.314,-150.5"/>
<polygon fill="black" stroke="black" points="310.633,-154 320.633,-150.5 310.633,-147 310.633,-154"/>
<text text-anchor="middle" x="298.5" y="-139.5" font-family="Verdana" font-size="10.00">Store</text>
</g>
<!-- MUA -->
<g id="node7" class="node"><title>MUA</title>
<polygon fill="none" stroke="black" points="16,-37.5 16,-73.5 70,-73.5 70,-37.5 16,-37.5"/>
<text text-anchor="middle" x="43" y="-52.4" font-family="Verdana" font-size="12.00">MUA</text>
</g>
<!-- Access&#45;&gt;MUA -->
<g id="edge8" class="edge"><title>Access&#45;&gt;MUA</title>
<path fill="none" stroke="black" d="M217.559,-227.36C191.151,-212.723 157.874,-192.125 132,-169 102.728,-142.838 75.7589,-106.238 59.3557,-81.9745"/>
<polygon fill="black" stroke="black" points="62.2602,-80.0214 53.8059,-73.6359 56.4329,-83.8999 62.2602,-80.0214"/>
<text text-anchor="middle" x="150.5" y="-153.5" font-family="Verdana" font-size="10.00">Mailbox</text>
<text text-anchor="middle" x="150.5" y="-142.5" font-family="Verdana" font-size="10.00">access</text>
</g>
<!-- Admin -->
<g id="node6" class="node"><title>Admin</title>
<polygon fill="lightgrey" stroke="black" points="248.5,-37.5 248.5,-73.5 315.5,-73.5 315.5,-37.5 248.5,-37.5"/>
<text text-anchor="middle" x="282" y="-52.4" font-family="Verdana" font-size="12.00">cmail&#45;api</text>
</g>
<!-- Admin&#45;&gt;Master -->
<g id="edge4" class="edge"><title>Admin&#45;&gt;Master</title>
<path fill="none" stroke="black" d="M295.573,-73.5576C306.872,-87.7577 323.122,-108.181 335.926,-124.272"/>
<polygon fill="black" stroke="black" points="333.297,-126.59 342.263,-132.236 338.775,-122.231 333.297,-126.59"/>
<text text-anchor="middle" x="358" y="-106" font-family="Verdana" font-size="10.00">Configuration</text>
<text text-anchor="middle" x="358" y="-95" font-family="Verdana" font-size="10.00">data</text>
</g>
<!-- MUA&#45;&gt;MSA -->
<g id="edge7" class="edge"><title>MUA&#45;&gt;MSA</title>
<path fill="none" stroke="black" d="M65.8147,-73.6233C70.1033,-76.5631 74.6185,-79.4791 79,-82 109.679,-99.6513 145.792,-116.198 174.665,-128.491"/>
<polygon fill="black" stroke="black" points="173.587,-131.835 184.161,-132.492 176.305,-125.384 173.587,-131.835"/>
<text text-anchor="middle" x="164" y="-106" font-family="Verdana" font-size="10.00">Originated</text>
<text text-anchor="middle" x="164" y="-95" font-family="Verdana" font-size="10.00">mail</text>
</g>
<!-- Browser -->
<g id="node8" class="node"><title>Browser</title>
<polygon fill="none" stroke="black" points="88,-37.5 88,-73.5 154,-73.5 154,-37.5 88,-37.5"/>
<text text-anchor="middle" x="121" y="-52.4" font-family="Verdana" font-size="12.00">Browser</text>
</g>
<!-- Browser&#45;&gt;Admin -->
<g id="edge9" class="edge"><title>Browser&#45;&gt;Admin</title>
<path fill="none" stroke="black" d="M154.359,-55.5C178.671,-55.5 211.841,-55.5 238.273,-55.5"/>
<polygon fill="black" stroke="black" points="238.407,-59.0001 248.407,-55.5 238.407,-52.0001 238.407,-59.0001"/>
<text text-anchor="middle" x="201.25" y="-44.5" font-family="Verdana" font-size="10.00">API Access</text>
<text text-anchor="middle" x="201.25" y="-33.5" font-family="Verdana" font-size="10.00">(HTTP)</text>
</g>
</g>
</svg>
